<svg width="10" height="10" viewBox="0 0 10 10" xmlns="http://www.w3.org/2000/svg"><path d="M9.30589 2.6121L4.99956 6.59705L0.693224 2.6121C0.616284 2.54076 0.512998 2.50082 0.405445 2.50082C0.297893 2.50082 0.194607 2.54076 0.117667 2.6121C0.080413 2.64675 0.0508167 2.68811 0.0306119 2.73375C0.0104071 2.7794 0 2.82841 0 2.87793C0 2.92744 0.0104071 2.97645 0.0306119 3.0221C0.0508167 3.06774 0.080413 3.1091 0.117667 3.14375L4.69886 7.38389C4.77931 7.45834 4.88721 7.5 4.99956 7.5C5.11191 7.5 5.21981 7.45834 5.30026 7.38389L9.88145 3.14457C9.91897 3.10989 9.94879 3.06843 9.96915 3.02264C9.98951 2.97684 10 2.92763 10 2.87793C10 2.82822 9.98951 2.77901 9.96915 2.73322C9.94879 2.68742 9.91897 2.64596 9.88145 2.61128C9.80451 2.53994 9.70122 2.5 9.59367 2.5C9.48612 2.5 9.38283 2.54076 9.30589 2.6121Z"/></svg>