<svg width="12" height="12" viewBox="0 0 12 12" xmlns="http://www.w3.org/2000/svg"><path d="M8.86548 11.1671L4.08354 5.99947L8.86548 0.831869C8.95109 0.739541 8.99902 0.615598 8.99902 0.486534C8.99902 0.357472 8.95109 0.233528 8.86548 0.1412C8.8239 0.0964956 8.77427 0.06098 8.7195 0.0367343C8.66472 0.0124885 8.60591 -1.72263e-08 8.54648 -1.98238e-08C8.48707 -2.24208e-08 8.42826 0.0124885 8.37348 0.0367343C8.31871 0.06098 8.26908 0.0964956 8.2275 0.1412L3.13933 5.63863C3.04999 5.73517 3 5.86465 3 5.99947C3 6.13429 3.04999 6.26377 3.13933 6.36031L8.22652 11.8577C8.26813 11.9028 8.31788 11.9385 8.37283 11.963C8.42779 11.9874 8.48684 12 8.54648 12C8.60614 12 8.66519 11.9874 8.72014 11.963C8.7751 11.9385 8.82485 11.9028 8.86646 11.8577C8.95207 11.7654 9 11.6415 9 11.5124C9 11.3833 8.95109 11.2594 8.86548 11.1671Z"/></svg>