<svg width="22" height="22" viewBox="0 0 22 22" fill="none" xmlns="http://www.w3.org/2000/svg">
<path d="M12.76 3.52C12.76 2.93652 12.5282 2.37695 12.1156 1.96437C11.7031 1.55179 11.1435 1.32 10.56 1.32C9.97652 1.32 9.41695 1.55179 9.00437 1.96437C8.59179 2.37695 8.36 2.93652 8.36 3.52H12.76ZM7.04 3.52C7.04 2.58644 7.41086 1.69111 8.07098 1.03098C8.73111 0.370856 9.62644 0 10.56 0C11.4936 0 12.3889 0.370856 13.049 1.03098C13.7091 1.69111 14.08 2.58644 14.08 3.52H19.58C19.755 3.52 19.9229 3.58954 20.0467 3.71331C20.1705 3.83708 20.24 4.00496 20.24 4.18C20.24 4.35504 20.1705 4.52292 20.0467 4.64669C19.9229 4.77046 19.755 4.84 19.58 4.84H18.4272L17.9802 10.2036C16.55 9.59528 14.9511 9.51114 13.465 9.96602C11.979 10.4209 10.7011 11.3856 9.85647 12.6902C9.01187 13.9948 8.65475 15.5556 8.848 17.0977C9.04125 18.6397 9.77248 20.0642 10.9129 21.12H7.49056C6.55247 21.1199 5.64867 20.7673 4.95836 20.1321C4.26806 19.4969 3.84168 18.6255 3.76376 17.6906L2.6928 4.84H1.54C1.36496 4.84 1.19708 4.77046 1.07331 4.64669C0.949536 4.52292 0.880001 4.35504 0.880001 4.18C0.880001 4.00496 0.949536 3.83708 1.07331 3.71331C1.19708 3.58954 1.36496 3.52 1.54 3.52H7.04ZM21.12 16.28C21.12 17.797 20.5174 19.2519 19.4446 20.3247C18.3719 21.3974 16.917 22 15.4 22C13.883 22 12.4281 21.3974 11.3553 20.3247C10.2826 19.2519 9.68 17.797 9.68 16.28C9.68 14.763 10.2826 13.3081 11.3553 12.2353C12.4281 11.1626 13.883 10.56 15.4 10.56C16.917 10.56 18.3719 11.1626 19.4446 12.2353C20.5174 13.3081 21.12 14.763 21.12 16.28V16.28ZM15.4 15.6578L13.0715 13.3285C12.9889 13.2459 12.8768 13.1994 12.76 13.1994C12.6432 13.1994 12.5311 13.2459 12.4485 13.3285C12.3659 13.4111 12.3194 13.5232 12.3194 13.64C12.3194 13.7568 12.3659 13.8689 12.4485 13.9515L14.7778 16.28L12.4485 18.6085C12.3659 18.6911 12.3194 18.8032 12.3194 18.92C12.3194 19.0368 12.3659 19.1489 12.4485 19.2315C12.5311 19.3141 12.6432 19.3606 12.76 19.3606C12.8768 19.3606 12.9889 19.3141 13.0715 19.2315L15.4 16.9022L17.7285 19.2315C17.8111 19.3141 17.9232 19.3606 18.04 19.3606C18.1568 19.3606 18.2689 19.3141 18.3515 19.2315C18.4341 19.1489 18.4806 19.0368 18.4806 18.92C18.4806 18.8032 18.4341 18.6911 18.3515 18.6085L16.0222 16.28L18.3515 13.9515C18.4341 13.8689 18.4806 13.7568 18.4806 13.64C18.4806 13.5232 18.4341 13.4111 18.3515 13.3285C18.2689 13.2459 18.1568 13.1994 18.04 13.1994C17.9232 13.1994 17.8111 13.2459 17.7285 13.3285L15.4 15.6578Z" fill="#404040"/>
</svg>
