<svg width="32" height="32" viewBox="0 0 32 32" xmlns="http://www.w3.org/2000/svg"><path d="M12.3989 1.43789L12.7356 2.80162C11.4086 3.12957 10.1386 3.65538 8.96825 4.36139L8.24803 3.15534C9.5363 2.37518 10.936 1.79603 12.3989 1.43789V1.43789ZM19.6011 1.43789L19.2644 2.80162C20.5914 3.12957 21.8614 3.65538 23.0317 4.36139L23.7605 3.15534C22.4688 2.37586 21.0664 1.79679 19.6011 1.43789V1.43789ZM3.15534 8.24377C2.3759 9.53393 1.79682 10.9349 1.43788 12.3989L2.80162 12.7356C3.12956 11.4086 3.65538 10.1386 4.36139 8.96825L3.15534 8.24377ZM2.40528 16C2.40518 15.3181 2.45646 14.6371 2.5587 13.9629L1.1694 13.7498C0.943534 15.24 0.943534 16.7557 1.1694 18.2459L2.5587 18.0371C2.45662 17.3629 2.40534 16.6819 2.40528 16V16ZM23.752 28.8404L23.0317 27.6386C21.8632 28.3453 20.5945 28.8711 19.2687 29.1984L19.6054 30.5621C21.0665 30.2005 22.4645 29.6201 23.752 28.8404ZM29.5947 16C29.5947 16.6819 29.5434 17.3629 29.4413 18.0371L30.8306 18.2459C31.0565 16.7557 31.0565 15.24 30.8306 13.7498L29.4413 13.9629C29.5435 14.6371 29.5948 15.3181 29.5947 16V16ZM30.5621 19.5968L29.1984 19.2602C28.8712 20.5887 28.3454 21.8602 27.6386 23.0317L28.8447 23.7562C29.6249 22.4649 30.204 21.0624 30.5621 19.5968V19.5968ZM18.0371 29.4413C16.6867 29.6459 15.3133 29.6459 13.9629 29.4413L13.7541 30.8306C15.2428 31.0565 16.7572 31.0565 18.2459 30.8306L18.0371 29.4413ZM26.944 24.0631C26.1339 25.1615 25.1627 26.1313 24.0631 26.9397L24.8984 28.0733C26.1096 27.1817 27.1811 26.1145 28.0776 24.9069L26.944 24.0631ZM24.0631 5.05604C25.1628 5.86598 26.134 6.8372 26.944 7.93693L28.0776 7.09312C27.1842 5.88443 26.1156 4.81578 24.9069 3.92244L24.0631 5.05604ZM5.05604 7.93693C5.86597 6.8372 6.8372 5.86598 7.93692 5.05604L7.09312 3.92244C5.88443 4.81578 4.81577 5.88443 3.92244 7.09312L5.05604 7.93693ZM28.8447 8.24377L27.6386 8.96825C28.3453 10.1368 28.8711 11.4055 29.1984 12.7313L30.5621 12.3946C30.2031 10.932 29.6241 9.53243 28.8447 8.24377V8.24377ZM13.9629 2.55871C15.3133 2.35412 16.6867 2.35412 18.0371 2.55871L18.2459 1.1694C16.7572 0.943512 15.2428 0.943512 13.7541 1.1694L13.9629 2.55871ZM5.77626 28.4483L2.87407 29.1217L3.55167 26.2195L2.18368 25.8999L1.50607 28.802C1.46367 28.982 1.45717 29.1685 1.48692 29.351C1.51668 29.5334 1.58211 29.7082 1.67949 29.8653C1.77686 30.0225 1.90425 30.1589 2.05439 30.2667C2.20452 30.3746 2.37444 30.4518 2.55444 30.4939C2.76495 30.5408 2.98319 30.5408 3.19369 30.4939L6.09589 29.8248L5.77626 28.4483ZM2.47347 24.6469L3.84573 24.9623L4.31451 22.9508C3.62993 21.8024 3.12005 20.5586 2.80162 19.2602L1.43788 19.5968C1.74463 20.8397 2.20863 22.0384 2.81866 23.1639L2.47347 24.6469ZM9.03644 27.6898L7.02493 28.1585L7.34455 29.5308L8.82335 29.1856C9.94797 29.7975 11.1469 30.2616 12.3904 30.5664L12.727 29.2026C11.4326 28.88 10.1932 28.3673 9.04922 27.6812L9.03644 27.6898ZM16 3.81163C9.26657 3.8159 3.81589 9.27509 3.81589 16.0043C3.8196 18.2962 4.46791 20.541 5.68677 22.482L4.51481 27.4852L9.51374 26.3132C15.2116 29.8973 22.7377 28.1884 26.3218 22.4948C29.9058 16.8012 28.2012 9.27509 22.5076 5.68677C20.5584 4.46103 18.3025 3.81101 16 3.81163"/></svg>