<svg width="44" height="44" viewBox="0 0 44 44" xmlns="http://www.w3.org/2000/svg"><path fill-rule="evenodd" clip-rule="evenodd" d="M10 36C10 34.343 11.34 33 12.99 33H41.01C41.4033 33.0007 41.7926 33.0788 42.1558 33.2299C42.5189 33.381 42.8487 33.6022 43.1263 33.8807C43.404 34.1593 43.624 34.4899 43.7739 34.8535C43.9238 35.2171 44.0007 35.6067 44 36C44 37.657 42.66 39 41.01 39H12.99C12.5967 38.9993 12.2074 38.9212 11.8442 38.7701C11.4811 38.619 11.1513 38.3978 10.8737 38.1193C10.596 37.8407 10.376 37.5101 10.2261 37.1465C10.0762 36.7829 9.99934 36.3933 10 36V36Z"/><path d="M6.003 36C6.003 36.394 5.9254 36.7841 5.77464 37.1481C5.62388 37.512 5.4029 37.8427 5.12432 38.1213C4.84575 38.3999 4.51503 38.6209 4.15105 38.7716C3.78707 38.9224 3.39697 39 3.003 39C2.60903 39 2.21893 38.9224 1.85495 38.7716C1.49097 38.6209 1.16026 38.3999 0.88168 38.1213C0.603104 37.8427 0.382126 37.512 0.231362 37.1481C0.0805975 36.7841 0.00300025 36.394 0.00300026 36C0.00300027 35.2044 0.319071 34.4413 0.88168 33.8787C1.44429 33.3161 2.20735 33 3.003 33C3.79865 33 4.56171 33.3161 5.12432 33.8787C5.68693 34.4413 6.003 35.2044 6.003 36V36Z"/><path fill-rule="evenodd" clip-rule="evenodd" d="M10 22C10 20.343 11.34 19 12.99 19H41.01C41.4033 19.0007 41.7926 19.0788 42.1558 19.2299C42.5189 19.381 42.8487 19.6022 43.1263 19.8807C43.404 20.1593 43.624 20.4899 43.7739 20.8535C43.9238 21.2171 44.0007 21.6067 44 22C44 23.657 42.66 25 41.01 25H12.99C12.5967 24.9993 12.2074 24.9212 11.8442 24.7701C11.4811 24.619 11.1513 24.3978 10.8737 24.1193C10.596 23.8407 10.376 23.5101 10.2261 23.1465C10.0762 22.7829 9.99934 22.3933 10 22V22Z"/><path d="M6.003 22C6.003 22.394 5.9254 22.7841 5.77464 23.1481C5.62388 23.512 5.4029 23.8427 5.12432 24.1213C4.84575 24.3999 4.51503 24.6209 4.15105 24.7716C3.78707 24.9224 3.39697 25 3.003 25C2.60903 25 2.21893 24.9224 1.85495 24.7716C1.49097 24.6209 1.16026 24.3999 0.88168 24.1213C0.603104 23.8427 0.382126 23.512 0.231362 23.1481C0.0805975 22.7841 0.00300025 22.394 0.00300026 22C0.00300027 21.2044 0.319071 20.4413 0.88168 19.8787C1.44429 19.3161 2.20735 19 3.003 19C3.79865 19 4.56171 19.3161 5.12432 19.8787C5.68693 20.4413 6.003 21.2044 6.003 22V22Z"/><path fill-rule="evenodd" clip-rule="evenodd" d="M10 8C10 6.343 11.34 5 12.99 5H41.01C41.4033 5.00066 41.7926 5.07877 42.1558 5.22989C42.5189 5.38101 42.8487 5.60217 43.1263 5.88075C43.404 6.15933 43.624 6.48986 43.7739 6.85348C43.9238 7.2171 44.0007 7.60669 44 8C44 9.657 42.66 11 41.01 11H12.99C12.5967 10.9993 12.2074 10.9212 11.8442 10.7701C11.4811 10.619 11.1513 10.3978 10.8737 10.1193C10.596 9.84067 10.376 9.51014 10.2261 9.14652C10.0762 8.7829 9.99934 8.39331 10 8V8Z"/><path d="M6.003 8C6.003 8.39397 5.9254 8.78407 5.77464 9.14805C5.62388 9.51203 5.4029 9.84274 5.12432 10.1213C4.84575 10.3999 4.51503 10.6209 4.15105 10.7716C3.78707 10.9224 3.39697 11 3.003 11C2.60903 11 2.21893 10.9224 1.85495 10.7716C1.49097 10.6209 1.16026 10.3999 0.88168 10.1213C0.603104 9.84274 0.382126 9.51203 0.231362 9.14805C0.0805975 8.78407 0.00300025 8.39397 0.00300026 8C0.00300027 7.20435 0.319071 6.44129 0.88168 5.87868C1.44429 5.31607 2.20735 5 3.003 5C3.79865 5 4.56171 5.31607 5.12432 5.87868C5.68693 6.44129 6.003 7.20435 6.003 8V8Z"/></svg>