<svg width="22" height="22" viewBox="0 0 22 22" xmlns="http://www.w3.org/2000/svg"><path d="M9 21C8.73478 21 8.48043 20.8946 8.29289 20.7071C8.10536 20.5196 8 20.2652 8 20C8 19.7348 8.10536 19.4804 8.29289 19.2929C8.48043 19.1054 8.73478 19 9 19H17.3333C18.0406 19 18.7189 18.719 19.219 18.2189C19.719 17.7189 20 17.0406 20 16.3333V5.66667C20 4.95942 19.719 4.28115 19.219 3.78105C18.7189 3.28095 18.0406 3 17.3333 3H9C8.73478 3 8.48043 2.89464 8.29289 2.70711C8.10536 2.51957 8 2.26522 8 2C8 1.73478 8.10536 1.48043 8.29289 1.29289C8.48043 1.10536 8.73478 1 9 1H17.3333C18.571 1 19.758 1.49167 20.6332 2.36683C21.5083 3.242 22 4.42899 22 5.66667V16.3333C22 17.571 21.5083 18.758 20.6332 19.6332C19.758 20.5083 18.571 21 17.3333 21H9ZM8.988 5.932C9.08447 5.84286 9.19755 5.77359 9.32079 5.72816C9.44404 5.68273 9.57502 5.66202 9.70627 5.66722C9.83751 5.67242 9.96645 5.70343 10.0857 5.75847C10.205 5.81351 10.3122 5.8915 10.4013 5.988L14.4013 10.3213C14.5721 10.5061 14.6669 10.7484 14.6669 11C14.6669 11.2516 14.5721 11.4939 14.4013 11.6787L10.4013 16.012C10.3121 16.1084 10.2048 16.1863 10.0855 16.2412C9.96618 16.2961 9.83723 16.327 9.70599 16.332C9.57475 16.3371 9.44379 16.3163 9.3206 16.2708C9.19741 16.2252 9.08439 16.1559 8.988 16.0667C8.89161 15.9775 8.81374 15.8701 8.75882 15.7508C8.70391 15.6315 8.67303 15.5026 8.66796 15.3713C8.6577 15.1063 8.75316 14.848 8.93333 14.6533L11.384 11.9987H1C0.734784 11.9987 0.48043 11.8933 0.292893 11.7058C0.105357 11.5182 0 11.2639 0 10.9987C0 10.7334 0.105357 10.4791 0.292893 10.2916C0.48043 10.104 0.734784 9.99867 1 9.99867H11.3827L8.932 7.34533C8.84286 7.24887 8.77359 7.13578 8.72816 7.01254C8.68273 6.8893 8.66202 6.75831 8.66722 6.62707C8.67242 6.49582 8.70343 6.36688 8.75847 6.24762C8.81351 6.12836 8.8915 6.02111 8.988 5.932V5.932Z"/></svg>