<svg width="22" height="22" viewBox="0 0 22 22" xmlns="http://www.w3.org/2000/svg"><path d="M5.61538 18.1429C5.61538 17.7485 5.46514 17.4118 5.16466 17.1328C4.86418 16.8538 4.5016 16.7143 4.07692 16.7143C3.65224 16.7143 3.28966 16.8538 2.98918 17.1328C2.6887 17.4118 2.53846 17.7485 2.53846 18.1429C2.53846 18.5372 2.6887 18.8739 2.98918 19.1529C3.28966 19.4319 3.65224 19.5714 4.07692 19.5714C4.5016 19.5714 4.86418 19.4319 5.16466 19.1529C5.46514 18.8739 5.61538 18.5372 5.61538 18.1429ZM10.2308 18.1429C10.2308 17.7485 10.0805 17.4118 9.78005 17.1328C9.47957 16.8538 9.11699 16.7143 8.69231 16.7143C8.26763 16.7143 7.90505 16.8538 7.60457 17.1328C7.30409 17.4118 7.15385 17.7485 7.15385 18.1429C7.15385 18.5372 7.30409 18.8739 7.60457 19.1529C7.90505 19.4319 8.26763 19.5714 8.69231 19.5714C9.11699 19.5714 9.47957 19.4319 9.78005 19.1529C10.0805 18.8739 10.2308 18.5372 10.2308 18.1429ZM5.61538 13.8571C5.61538 13.4628 5.46514 13.1261 5.16466 12.8471C4.86418 12.5681 4.5016 12.4286 4.07692 12.4286C3.65224 12.4286 3.28966 12.5681 2.98918 12.8471C2.6887 13.1261 2.53846 13.4628 2.53846 13.8571C2.53846 14.2515 2.6887 14.5882 2.98918 14.8672C3.28966 15.1462 3.65224 15.2857 4.07692 15.2857C4.5016 15.2857 4.86418 15.1462 5.16466 14.8672C5.46514 14.5882 5.61538 14.2515 5.61538 13.8571ZM14.8462 18.1429C14.8462 17.7485 14.6959 17.4118 14.3954 17.1328C14.095 16.8538 13.7324 16.7143 13.3077 16.7143C12.883 16.7143 12.5204 16.8538 12.22 17.1328C11.9195 17.4118 11.7692 17.7485 11.7692 18.1429C11.7692 18.5372 11.9195 18.8739 12.22 19.1529C12.5204 19.4319 12.883 19.5714 13.3077 19.5714C13.7324 19.5714 14.095 19.4319 14.3954 19.1529C14.6959 18.8739 14.8462 18.5372 14.8462 18.1429ZM10.2308 13.8571C10.2308 13.4628 10.0805 13.1261 9.78005 12.8471C9.47957 12.5681 9.11699 12.4286 8.69231 12.4286C8.26763 12.4286 7.90505 12.5681 7.60457 12.8471C7.30409 13.1261 7.15385 13.4628 7.15385 13.8571C7.15385 14.2515 7.30409 14.5882 7.60457 14.8672C7.90505 15.1462 8.26763 15.2857 8.69231 15.2857C9.11699 15.2857 9.47957 15.1462 9.78005 14.8672C10.0805 14.5882 10.2308 14.2515 10.2308 13.8571ZM5.61538 9.57143C5.61538 9.17708 5.46514 8.8404 5.16466 8.56138C4.86418 8.28237 4.5016 8.14286 4.07692 8.14286C3.65224 8.14286 3.28966 8.28237 2.98918 8.56138C2.6887 8.8404 2.53846 9.17708 2.53846 9.57143C2.53846 9.96577 2.6887 10.3025 2.98918 10.5815C3.28966 10.8605 3.65224 11 4.07692 11C4.5016 11 4.86418 10.8605 5.16466 10.5815C5.46514 10.3025 5.61538 9.96577 5.61538 9.57143ZM14.8462 13.8571C14.8462 13.4628 14.6959 13.1261 14.3954 12.8471C14.095 12.5681 13.7324 12.4286 13.3077 12.4286C12.883 12.4286 12.5204 12.5681 12.22 12.8471C11.9195 13.1261 11.7692 13.4628 11.7692 13.8571C11.7692 14.2515 11.9195 14.5882 12.22 14.8672C12.5204 15.1462 12.883 15.2857 13.3077 15.2857C13.7324 15.2857 14.095 15.1462 14.3954 14.8672C14.6959 14.5882 14.8462 14.2515 14.8462 13.8571ZM10.2308 9.57143C10.2308 9.17708 10.0805 8.8404 9.78005 8.56138C9.47957 8.28237 9.11699 8.14286 8.69231 8.14286C8.26763 8.14286 7.90505 8.28237 7.60457 8.56138C7.30409 8.8404 7.15385 9.17708 7.15385 9.57143C7.15385 9.96577 7.30409 10.3025 7.60457 10.5815C7.90505 10.8605 8.26763 11 8.69231 11C9.11699 11 9.47957 10.8605 9.78005 10.5815C10.0805 10.3025 10.2308 9.96577 10.2308 9.57143ZM19.4615 18.1429V13.8571C19.4615 13.4702 19.3093 13.1354 19.0048 12.8527C18.7003 12.5699 18.3397 12.4286 17.9231 12.4286C17.5064 12.4286 17.1458 12.5699 16.8413 12.8527C16.5369 13.1354 16.3846 13.4702 16.3846 13.8571V18.1429C16.3846 18.5298 16.5369 18.8646 16.8413 19.1473C17.1458 19.4301 17.5064 19.5714 17.9231 19.5714C18.3397 19.5714 18.7003 19.4301 19.0048 19.1473C19.3093 18.8646 19.4615 18.5298 19.4615 18.1429ZM14.8462 9.57143C14.8462 9.17708 14.6959 8.8404 14.3954 8.56138C14.095 8.28237 13.7324 8.14286 13.3077 8.14286C12.883 8.14286 12.5204 8.28237 12.22 8.56138C11.9195 8.8404 11.7692 9.17708 11.7692 9.57143C11.7692 9.96577 11.9195 10.3025 12.22 10.5815C12.5204 10.8605 12.883 11 13.3077 11C13.7324 11 14.095 10.8605 14.3954 10.5815C14.6959 10.3025 14.8462 9.96577 14.8462 9.57143ZM19.4615 6V3.14286C19.4615 2.9494 19.3854 2.78199 19.2332 2.64062C19.0809 2.49926 18.9006 2.42857 18.6923 2.42857H3.30769C3.09936 2.42857 2.91907 2.49926 2.76683 2.64062C2.61458 2.78199 2.53846 2.9494 2.53846 3.14286V6C2.53846 6.19345 2.61458 6.36086 2.76683 6.50223C2.91907 6.6436 3.09936 6.71429 3.30769 6.71429H18.6923C18.9006 6.71429 19.0809 6.6436 19.2332 6.50223C19.3854 6.36086 19.4615 6.19345 19.4615 6ZM19.4615 9.57143C19.4615 9.17708 19.3113 8.8404 19.0108 8.56138C18.7103 8.28237 18.3478 8.14286 17.9231 8.14286C17.4984 8.14286 17.1358 8.28237 16.8353 8.56138C16.5349 8.8404 16.3846 9.17708 16.3846 9.57143C16.3846 9.96577 16.5349 10.3025 16.8353 10.5815C17.1358 10.8605 17.4984 11 17.9231 11C18.3478 11 18.7103 10.8605 19.0108 10.5815C19.3113 10.3025 19.4615 9.96577 19.4615 9.57143ZM21 2.42857V19.5714C21 19.9583 20.8478 20.2932 20.5433 20.5759C20.2388 20.8586 19.8782 21 19.4615 21H2.53846C2.12179 21 1.76122 20.8586 1.45673 20.5759C1.15224 20.2932 1 19.9583 1 19.5714V2.42857C1 2.04167 1.15224 1.70685 1.45673 1.42411C1.76122 1.14137 2.12179 1 2.53846 1H19.4615C19.8782 1 20.2388 1.14137 20.5433 1.42411C20.8478 1.70685 21 2.04167 21 2.42857Z"/></svg>