<svg width="22" height="22" viewBox="0 0 22 22" xmlns="http://www.w3.org/2000/svg"><path fill-rule="evenodd" clip-rule="evenodd" d="M16.9947 6.1448C17.0695 6.07006 17.1289 5.98132 17.1694 5.88364C17.21 5.78596 17.2309 5.68125 17.2309 5.57549C17.231 5.46974 17.2102 5.365 17.1698 5.26727C17.1294 5.16954 17.0701 5.08073 16.9954 5.0059C16.9207 4.93107 16.8319 4.8717 16.7342 4.83117C16.6366 4.79064 16.5318 4.76974 16.4261 4.76968C16.3203 4.76961 16.2156 4.79038 16.1179 4.83079C16.0201 4.8712 15.9313 4.93046 15.8565 5.0052L10.9999 9.8618L6.1447 5.0052C5.99358 4.85408 5.78861 4.76918 5.5749 4.76918C5.36118 4.76918 5.15622 4.85408 5.0051 5.0052C4.85398 5.15632 4.76908 5.36128 4.76908 5.575C4.76908 5.78872 4.85398 5.99368 5.0051 6.1448L9.8617 11L5.0051 15.8552C4.93027 15.93 4.87091 16.0189 4.83042 16.1166C4.78992 16.2144 4.76908 16.3192 4.76908 16.425C4.76908 16.5308 4.78992 16.6356 4.83042 16.7334C4.87091 16.8311 4.93027 16.92 5.0051 16.9948C5.15622 17.1459 5.36118 17.2308 5.5749 17.2308C5.68072 17.2308 5.7855 17.21 5.88327 17.1695C5.98104 17.129 6.06987 17.0696 6.1447 16.9948L10.9999 12.1382L15.8565 16.9948C16.0076 17.1457 16.2125 17.2305 16.4261 17.2303C16.6397 17.2302 16.8445 17.1452 16.9954 16.9941C17.1463 16.843 17.2311 16.6381 17.2309 16.4245C17.2308 16.2109 17.1458 16.0061 16.9947 15.8552L12.1381 11L16.9947 6.1448Z"/></svg>