<svg width="22" height="22" viewBox="0 0 22 22" xmlns="http://www.w3.org/2000/svg"><path d="M8.71439 4.14295C8.41129 4.14295 8.1206 4.26336 7.90628 4.47769C7.69195 4.69201 7.57154 4.9827 7.57154 5.2858V13.2857C7.57154 13.5888 7.69195 13.8795 7.90628 14.0938C8.1206 14.3082 8.41129 14.4286 8.71439 14.4286H16.7143C17.0174 14.4286 17.3081 14.3082 17.5224 14.0938C17.7368 13.8795 17.8572 13.5888 17.8572 13.2857V5.2858C17.8572 4.9827 17.7368 4.69201 17.5224 4.47769C17.3081 4.26336 17.0174 4.14295 16.7143 4.14295H8.71439ZM8.71439 3.00011H16.7143C17.3205 3.00011 17.9019 3.24092 18.3306 3.66957C18.7592 4.09822 19 4.6796 19 5.2858V13.2857C19 13.8919 18.7592 14.4733 18.3306 14.902C17.9019 15.3306 17.3205 15.5714 16.7143 15.5714H8.71439C8.10819 15.5714 7.52681 15.3306 7.09816 14.902C6.66951 14.4733 6.4287 13.8919 6.4287 13.2857V5.2858C6.4287 4.6796 6.66951 4.09822 7.09816 3.66957C7.52681 3.24092 8.10819 3.00011 8.71439 3.00011V3.00011Z"/><path d="M15.5713 16.7142C15.5713 17.3204 15.3305 17.9018 14.9018 18.3304C14.4732 18.7591 13.8918 18.9999 13.2856 18.9999H5.28568C4.67948 18.9999 4.0981 18.7591 3.66945 18.3304C3.2408 17.9018 2.99998 17.3204 2.99998 16.7142V8.71427C2.99998 8.10806 3.2408 7.52669 3.66945 7.09804C4.0981 6.66939 4.67948 6.42857 5.28568 6.42857V7.57142C4.98258 7.57142 4.69189 7.69183 4.47756 7.90615C4.26324 8.12048 4.14283 8.41117 4.14283 8.71427V16.7142C4.14283 17.0173 4.26324 17.308 4.47756 17.5223C4.69189 17.7366 4.98258 17.857 5.28568 17.857H13.2856C13.5887 17.857 13.8794 17.7366 14.0937 17.5223C14.308 17.308 14.4285 17.0173 14.4285 16.7142H15.5713Z"/></svg>