<svg width="22" height="22" viewBox="0 0 22 22" fill="none" xmlns="http://www.w3.org/2000/svg">
<path d="M22 11C22 17.0751 17.0751 22 11 22C4.92487 22 0 17.0751 0 11C0 4.92487 4.92487 0 11 0C17.0751 0 22 4.92487 22 11Z" fill="#404040"/>
<path d="M10.0283 7.38184C10.0283 6.7028 10.4066 6.36328 11.1631 6.36328C11.9196 6.36328 12.2979 6.7028 12.2979 7.38184C12.2979 7.7054 12.2021 7.95833 12.0107 8.14062C11.8239 8.31836 11.5413 8.40723 11.1631 8.40723C10.4066 8.40723 10.0283 8.06543 10.0283 7.38184ZM12.2021 17H10.1172V9.35742H12.2021V17Z" fill="white"/>
</svg>
