<svg width="22" height="22" viewBox="0 0 22 22" xmlns="http://www.w3.org/2000/svg"><path d="M20 19.0586L14.972 14.0306C16.1803 12.58 16.7828 10.7195 16.6542 8.83605C16.5256 6.95259 15.6759 5.19121 14.2817 3.91831C12.8876 2.64541 11.0563 1.95901 9.16898 2.00189C7.28163 2.04478 5.48346 2.81365 4.14855 4.14855C2.81365 5.48346 2.04478 7.28163 2.00189 9.16898C1.95901 11.0563 2.64541 12.8876 3.91831 14.2817C5.19121 15.6759 6.95259 16.5256 8.83605 16.6542C10.7195 16.7828 12.58 16.1803 14.0306 14.972L19.0586 20L20 19.0586ZM3.35538 9.34744C3.35538 8.16232 3.70681 7.00382 4.36522 6.01843C5.02364 5.03304 5.95947 4.26502 7.05438 3.8115C8.14928 3.35797 9.35409 3.23931 10.5164 3.47051C11.6788 3.70172 12.7465 4.27241 13.5845 5.11041C14.4225 5.94842 14.9932 7.0161 15.2244 8.17845C15.4556 9.34079 15.3369 10.5456 14.8834 11.6405C14.4299 12.7354 13.6618 13.6712 12.6765 14.3297C11.6911 14.9881 10.5326 15.3395 9.34744 15.3395C7.75879 15.3377 6.23571 14.7059 5.11236 13.5825C3.98901 12.4592 3.35714 10.9361 3.35538 9.34744V9.34744Z"/></svg>