<svg width="32" height="32" viewBox="0 0 32 32" xmlns="http://www.w3.org/2000/svg"><path fill-rule="evenodd" clip-rule="evenodd" d="M30.5848 8.2909C30.7963 7.5954 30.5848 7.08333 29.5721 7.08333H26.2284C25.3775 7.08333 24.9851 7.52534 24.7724 8.01321C24.7724 8.01321 23.0719 12.0843 20.6631 14.7287C19.8835 15.4956 19.5294 15.7389 19.104 15.7389C18.8912 15.7389 18.5715 15.4956 18.5715 14.7988V8.2909C18.5715 7.45528 18.3371 7.08333 17.6289 7.08333H12.3706C11.8394 7.08333 11.5197 7.47056 11.5197 7.8387C11.5197 8.62973 12.7247 8.81316 12.8483 11.0398V15.8777C12.8483 16.9388 12.6534 17.1311 12.2279 17.1311C11.0942 17.1311 8.33644 13.0409 6.69959 8.36096C6.38241 7.45018 6.06141 7.08333 5.20668 7.08333H1.86038C0.905025 7.08333 0.713954 7.52534 0.713954 8.01321C0.713954 8.88195 1.84765 13.1976 5.9939 18.9056C8.75807 22.8034 12.6496 24.9167 16.1946 24.9167C18.3206 24.9167 18.583 24.4479 18.583 23.639V20.6927C18.583 19.7539 18.7842 19.5667 19.4581 19.5667C19.9549 19.5667 20.8045 19.8112 22.7891 21.6901C25.0565 23.918 25.4297 24.9167 26.7061 24.9167H30.0498C31.0052 24.9167 31.4841 24.4479 31.209 23.5206C30.9058 22.5983 29.8231 21.2596 28.3875 19.6711C27.6079 18.7667 26.4386 17.7923 26.0832 17.3044C25.5876 16.6789 25.729 16.4 26.0832 15.8433C26.0832 15.8433 30.1594 10.2054 30.5835 8.2909H30.5848Z"/></svg>