<svg width="0" height="0" class="hidden">
  <symbol xmlns="http://www.w3.org/2000/svg" viewBox="0 0 22 22" id="calculator">
    <path d="M5.61538 18.1429C5.61538 17.7485 5.46514 17.4118 5.16466 17.1328C4.86418 16.8538 4.5016 16.7143 4.07692 16.7143C3.65224 16.7143 3.28966 16.8538 2.98918 17.1328C2.6887 17.4118 2.53846 17.7485 2.53846 18.1429C2.53846 18.5372 2.6887 18.8739 2.98918 19.1529C3.28966 19.4319 3.65224 19.5714 4.07692 19.5714C4.5016 19.5714 4.86418 19.4319 5.16466 19.1529C5.46514 18.8739 5.61538 18.5372 5.61538 18.1429ZM10.2308 18.1429C10.2308 17.7485 10.0805 17.4118 9.78005 17.1328C9.47957 16.8538 9.11699 16.7143 8.69231 16.7143C8.26763 16.7143 7.90505 16.8538 7.60457 17.1328C7.30409 17.4118 7.15385 17.7485 7.15385 18.1429C7.15385 18.5372 7.30409 18.8739 7.60457 19.1529C7.90505 19.4319 8.26763 19.5714 8.69231 19.5714C9.11699 19.5714 9.47957 19.4319 9.78005 19.1529C10.0805 18.8739 10.2308 18.5372 10.2308 18.1429ZM5.61538 13.8571C5.61538 13.4628 5.46514 13.1261 5.16466 12.8471C4.86418 12.5681 4.5016 12.4286 4.07692 12.4286C3.65224 12.4286 3.28966 12.5681 2.98918 12.8471C2.6887 13.1261 2.53846 13.4628 2.53846 13.8571C2.53846 14.2515 2.6887 14.5882 2.98918 14.8672C3.28966 15.1462 3.65224 15.2857 4.07692 15.2857C4.5016 15.2857 4.86418 15.1462 5.16466 14.8672C5.46514 14.5882 5.61538 14.2515 5.61538 13.8571ZM14.8462 18.1429C14.8462 17.7485 14.6959 17.4118 14.3954 17.1328C14.095 16.8538 13.7324 16.7143 13.3077 16.7143C12.883 16.7143 12.5204 16.8538 12.22 17.1328C11.9195 17.4118 11.7692 17.7485 11.7692 18.1429C11.7692 18.5372 11.9195 18.8739 12.22 19.1529C12.5204 19.4319 12.883 19.5714 13.3077 19.5714C13.7324 19.5714 14.095 19.4319 14.3954 19.1529C14.6959 18.8739 14.8462 18.5372 14.8462 18.1429ZM10.2308 13.8571C10.2308 13.4628 10.0805 13.1261 9.78005 12.8471C9.47957 12.5681 9.11699 12.4286 8.69231 12.4286C8.26763 12.4286 7.90505 12.5681 7.60457 12.8471C7.30409 13.1261 7.15385 13.4628 7.15385 13.8571C7.15385 14.2515 7.30409 14.5882 7.60457 14.8672C7.90505 15.1462 8.26763 15.2857 8.69231 15.2857C9.11699 15.2857 9.47957 15.1462 9.78005 14.8672C10.0805 14.5882 10.2308 14.2515 10.2308 13.8571ZM5.61538 9.57143C5.61538 9.17708 5.46514 8.8404 5.16466 8.56138C4.86418 8.28237 4.5016 8.14286 4.07692 8.14286C3.65224 8.14286 3.28966 8.28237 2.98918 8.56138C2.6887 8.8404 2.53846 9.17708 2.53846 9.57143C2.53846 9.96577 2.6887 10.3025 2.98918 10.5815C3.28966 10.8605 3.65224 11 4.07692 11C4.5016 11 4.86418 10.8605 5.16466 10.5815C5.46514 10.3025 5.61538 9.96577 5.61538 9.57143ZM14.8462 13.8571C14.8462 13.4628 14.6959 13.1261 14.3954 12.8471C14.095 12.5681 13.7324 12.4286 13.3077 12.4286C12.883 12.4286 12.5204 12.5681 12.22 12.8471C11.9195 13.1261 11.7692 13.4628 11.7692 13.8571C11.7692 14.2515 11.9195 14.5882 12.22 14.8672C12.5204 15.1462 12.883 15.2857 13.3077 15.2857C13.7324 15.2857 14.095 15.1462 14.3954 14.8672C14.6959 14.5882 14.8462 14.2515 14.8462 13.8571ZM10.2308 9.57143C10.2308 9.17708 10.0805 8.8404 9.78005 8.56138C9.47957 8.28237 9.11699 8.14286 8.69231 8.14286C8.26763 8.14286 7.90505 8.28237 7.60457 8.56138C7.30409 8.8404 7.15385 9.17708 7.15385 9.57143C7.15385 9.96577 7.30409 10.3025 7.60457 10.5815C7.90505 10.8605 8.26763 11 8.69231 11C9.11699 11 9.47957 10.8605 9.78005 10.5815C10.0805 10.3025 10.2308 9.96577 10.2308 9.57143ZM19.4615 18.1429V13.8571C19.4615 13.4702 19.3093 13.1354 19.0048 12.8527C18.7003 12.5699 18.3397 12.4286 17.9231 12.4286C17.5064 12.4286 17.1458 12.5699 16.8413 12.8527C16.5369 13.1354 16.3846 13.4702 16.3846 13.8571V18.1429C16.3846 18.5298 16.5369 18.8646 16.8413 19.1473C17.1458 19.4301 17.5064 19.5714 17.9231 19.5714C18.3397 19.5714 18.7003 19.4301 19.0048 19.1473C19.3093 18.8646 19.4615 18.5298 19.4615 18.1429ZM14.8462 9.57143C14.8462 9.17708 14.6959 8.8404 14.3954 8.56138C14.095 8.28237 13.7324 8.14286 13.3077 8.14286C12.883 8.14286 12.5204 8.28237 12.22 8.56138C11.9195 8.8404 11.7692 9.17708 11.7692 9.57143C11.7692 9.96577 11.9195 10.3025 12.22 10.5815C12.5204 10.8605 12.883 11 13.3077 11C13.7324 11 14.095 10.8605 14.3954 10.5815C14.6959 10.3025 14.8462 9.96577 14.8462 9.57143ZM19.4615 6V3.14286C19.4615 2.9494 19.3854 2.78199 19.2332 2.64062C19.0809 2.49926 18.9006 2.42857 18.6923 2.42857H3.30769C3.09936 2.42857 2.91907 2.49926 2.76683 2.64062C2.61458 2.78199 2.53846 2.9494 2.53846 3.14286V6C2.53846 6.19345 2.61458 6.36086 2.76683 6.50223C2.91907 6.6436 3.09936 6.71429 3.30769 6.71429H18.6923C18.9006 6.71429 19.0809 6.6436 19.2332 6.50223C19.3854 6.36086 19.4615 6.19345 19.4615 6ZM19.4615 9.57143C19.4615 9.17708 19.3113 8.8404 19.0108 8.56138C18.7103 8.28237 18.3478 8.14286 17.9231 8.14286C17.4984 8.14286 17.1358 8.28237 16.8353 8.56138C16.5349 8.8404 16.3846 9.17708 16.3846 9.57143C16.3846 9.96577 16.5349 10.3025 16.8353 10.5815C17.1358 10.8605 17.4984 11 17.9231 11C18.3478 11 18.7103 10.8605 19.0108 10.5815C19.3113 10.3025 19.4615 9.96577 19.4615 9.57143ZM21 2.42857V19.5714C21 19.9583 20.8478 20.2932 20.5433 20.5759C20.2388 20.8586 19.8782 21 19.4615 21H2.53846C2.12179 21 1.76122 20.8586 1.45673 20.5759C1.15224 20.2932 1 19.9583 1 19.5714V2.42857C1 2.04167 1.15224 1.70685 1.45673 1.42411C1.76122 1.14137 2.12179 1 2.53846 1H19.4615C19.8782 1 20.2388 1.14137 20.5433 1.42411C20.8478 1.70685 21 2.04167 21 2.42857Z"></path>
  </symbol>
  <symbol xmlns="http://www.w3.org/2000/svg" viewBox="0 0 22 22" id="close">
    <path fill-rule="evenodd" clip-rule="evenodd" d="M16.9947 6.1448C17.0695 6.07006 17.1289 5.98132 17.1694 5.88364C17.21 5.78596 17.2309 5.68125 17.2309 5.57549C17.231 5.46974 17.2102 5.365 17.1698 5.26727C17.1294 5.16954 17.0701 5.08073 16.9954 5.0059C16.9207 4.93107 16.8319 4.8717 16.7342 4.83117C16.6366 4.79064 16.5318 4.76974 16.4261 4.76968C16.3203 4.76961 16.2156 4.79038 16.1179 4.83079C16.0201 4.8712 15.9313 4.93046 15.8565 5.0052L10.9999 9.8618L6.1447 5.0052C5.99358 4.85408 5.78861 4.76918 5.5749 4.76918C5.36118 4.76918 5.15622 4.85408 5.0051 5.0052C4.85398 5.15632 4.76908 5.36128 4.76908 5.575C4.76908 5.78872 4.85398 5.99368 5.0051 6.1448L9.8617 11L5.0051 15.8552C4.93027 15.93 4.87091 16.0189 4.83042 16.1166C4.78992 16.2144 4.76908 16.3192 4.76908 16.425C4.76908 16.5308 4.78992 16.6356 4.83042 16.7334C4.87091 16.8311 4.93027 16.92 5.0051 16.9948C5.15622 17.1459 5.36118 17.2308 5.5749 17.2308C5.68072 17.2308 5.7855 17.21 5.88327 17.1695C5.98104 17.129 6.06987 17.0696 6.1447 16.9948L10.9999 12.1382L15.8565 16.9948C16.0076 17.1457 16.2125 17.2305 16.4261 17.2303C16.6397 17.2302 16.8445 17.1452 16.9954 16.9941C17.1463 16.843 17.2311 16.6381 17.2309 16.4245C17.2308 16.2109 17.1458 16.0061 16.9947 15.8552L12.1381 11L16.9947 6.1448Z"></path>
  </symbol>
  <symbol xmlns="http://www.w3.org/2000/svg" viewBox="0 0 22 22" id="copy">
    <path d="M8.71439 4.14295C8.41129 4.14295 8.1206 4.26336 7.90628 4.47769C7.69195 4.69201 7.57154 4.9827 7.57154 5.2858V13.2857C7.57154 13.5888 7.69195 13.8795 7.90628 14.0938C8.1206 14.3082 8.41129 14.4286 8.71439 14.4286H16.7143C17.0174 14.4286 17.3081 14.3082 17.5224 14.0938C17.7368 13.8795 17.8572 13.5888 17.8572 13.2857V5.2858C17.8572 4.9827 17.7368 4.69201 17.5224 4.47769C17.3081 4.26336 17.0174 4.14295 16.7143 4.14295H8.71439ZM8.71439 3.00011H16.7143C17.3205 3.00011 17.9019 3.24092 18.3306 3.66957C18.7592 4.09822 19 4.6796 19 5.2858V13.2857C19 13.8919 18.7592 14.4733 18.3306 14.902C17.9019 15.3306 17.3205 15.5714 16.7143 15.5714H8.71439C8.10819 15.5714 7.52681 15.3306 7.09816 14.902C6.66951 14.4733 6.4287 13.8919 6.4287 13.2857V5.2858C6.4287 4.6796 6.66951 4.09822 7.09816 3.66957C7.52681 3.24092 8.10819 3.00011 8.71439 3.00011V3.00011Z"></path>
    <path d="M15.5713 16.7142C15.5713 17.3204 15.3305 17.9018 14.9018 18.3304C14.4732 18.7591 13.8918 18.9999 13.2856 18.9999H5.28568C4.67948 18.9999 4.0981 18.7591 3.66945 18.3304C3.2408 17.9018 2.99998 17.3204 2.99998 16.7142V8.71427C2.99998 8.10806 3.2408 7.52669 3.66945 7.09804C4.0981 6.66939 4.67948 6.42857 5.28568 6.42857V7.57142C4.98258 7.57142 4.69189 7.69183 4.47756 7.90615C4.26324 8.12048 4.14283 8.41117 4.14283 8.71427V16.7142C4.14283 17.0173 4.26324 17.308 4.47756 17.5223C4.69189 17.7366 4.98258 17.857 5.28568 17.857H13.2856C13.5887 17.857 13.8794 17.7366 14.0937 17.5223C14.308 17.308 14.4285 17.0173 14.4285 16.7142H15.5713Z"></path>
  </symbol>
  <symbol xmlns="http://www.w3.org/2000/svg" viewBox="0 0 32 32" id="signal-social">
    <path d="M12.3989 1.43789L12.7356 2.80162C11.4086 3.12957 10.1386 3.65538 8.96825 4.36139L8.24803 3.15534C9.5363 2.37518 10.936 1.79603 12.3989 1.43789V1.43789ZM19.6011 1.43789L19.2644 2.80162C20.5914 3.12957 21.8614 3.65538 23.0317 4.36139L23.7605 3.15534C22.4688 2.37586 21.0664 1.79679 19.6011 1.43789V1.43789ZM3.15534 8.24377C2.3759 9.53393 1.79682 10.9349 1.43788 12.3989L2.80162 12.7356C3.12956 11.4086 3.65538 10.1386 4.36139 8.96825L3.15534 8.24377ZM2.40528 16C2.40518 15.3181 2.45646 14.6371 2.5587 13.9629L1.1694 13.7498C0.943534 15.24 0.943534 16.7557 1.1694 18.2459L2.5587 18.0371C2.45662 17.3629 2.40534 16.6819 2.40528 16V16ZM23.752 28.8404L23.0317 27.6386C21.8632 28.3453 20.5945 28.8711 19.2687 29.1984L19.6054 30.5621C21.0665 30.2005 22.4645 29.6201 23.752 28.8404ZM29.5947 16C29.5947 16.6819 29.5434 17.3629 29.4413 18.0371L30.8306 18.2459C31.0565 16.7557 31.0565 15.24 30.8306 13.7498L29.4413 13.9629C29.5435 14.6371 29.5948 15.3181 29.5947 16V16ZM30.5621 19.5968L29.1984 19.2602C28.8712 20.5887 28.3454 21.8602 27.6386 23.0317L28.8447 23.7562C29.6249 22.4649 30.204 21.0624 30.5621 19.5968V19.5968ZM18.0371 29.4413C16.6867 29.6459 15.3133 29.6459 13.9629 29.4413L13.7541 30.8306C15.2428 31.0565 16.7572 31.0565 18.2459 30.8306L18.0371 29.4413ZM26.944 24.0631C26.1339 25.1615 25.1627 26.1313 24.0631 26.9397L24.8984 28.0733C26.1096 27.1817 27.1811 26.1145 28.0776 24.9069L26.944 24.0631ZM24.0631 5.05604C25.1628 5.86598 26.134 6.8372 26.944 7.93693L28.0776 7.09312C27.1842 5.88443 26.1156 4.81578 24.9069 3.92244L24.0631 5.05604ZM5.05604 7.93693C5.86597 6.8372 6.8372 5.86598 7.93692 5.05604L7.09312 3.92244C5.88443 4.81578 4.81577 5.88443 3.92244 7.09312L5.05604 7.93693ZM28.8447 8.24377L27.6386 8.96825C28.3453 10.1368 28.8711 11.4055 29.1984 12.7313L30.5621 12.3946C30.2031 10.932 29.6241 9.53243 28.8447 8.24377V8.24377ZM13.9629 2.55871C15.3133 2.35412 16.6867 2.35412 18.0371 2.55871L18.2459 1.1694C16.7572 0.943512 15.2428 0.943512 13.7541 1.1694L13.9629 2.55871ZM5.77626 28.4483L2.87407 29.1217L3.55167 26.2195L2.18368 25.8999L1.50607 28.802C1.46367 28.982 1.45717 29.1685 1.48692 29.351C1.51668 29.5334 1.58211 29.7082 1.67949 29.8653C1.77686 30.0225 1.90425 30.1589 2.05439 30.2667C2.20452 30.3746 2.37444 30.4518 2.55444 30.4939C2.76495 30.5408 2.98319 30.5408 3.19369 30.4939L6.09589 29.8248L5.77626 28.4483ZM2.47347 24.6469L3.84573 24.9623L4.31451 22.9508C3.62993 21.8024 3.12005 20.5586 2.80162 19.2602L1.43788 19.5968C1.74463 20.8397 2.20863 22.0384 2.81866 23.1639L2.47347 24.6469ZM9.03644 27.6898L7.02493 28.1585L7.34455 29.5308L8.82335 29.1856C9.94797 29.7975 11.1469 30.2616 12.3904 30.5664L12.727 29.2026C11.4326 28.88 10.1932 28.3673 9.04922 27.6812L9.03644 27.6898ZM16 3.81163C9.26657 3.8159 3.81589 9.27509 3.81589 16.0043C3.8196 18.2962 4.46791 20.541 5.68677 22.482L4.51481 27.4852L9.51374 26.3132C15.2116 29.8973 22.7377 28.1884 26.3218 22.4948C29.9058 16.8012 28.2012 9.27509 22.5076 5.68677C20.5584 4.46103 18.3025 3.81101 16 3.81163"></path>
  </symbol>
  <symbol xmlns="http://www.w3.org/2000/svg" viewBox="0 0 32 32" id="vk-social">
    <path fill-rule="evenodd" clip-rule="evenodd" d="M30.5848 8.2909C30.7963 7.5954 30.5848 7.08333 29.5721 7.08333H26.2284C25.3775 7.08333 24.9851 7.52534 24.7724 8.01321C24.7724 8.01321 23.0719 12.0843 20.6631 14.7287C19.8835 15.4956 19.5294 15.7389 19.104 15.7389C18.8912 15.7389 18.5715 15.4956 18.5715 14.7988V8.2909C18.5715 7.45528 18.3371 7.08333 17.6289 7.08333H12.3706C11.8394 7.08333 11.5197 7.47056 11.5197 7.8387C11.5197 8.62973 12.7247 8.81316 12.8483 11.0398V15.8777C12.8483 16.9388 12.6534 17.1311 12.2279 17.1311C11.0942 17.1311 8.33644 13.0409 6.69959 8.36096C6.38241 7.45018 6.06141 7.08333 5.20668 7.08333H1.86038C0.905025 7.08333 0.713954 7.52534 0.713954 8.01321C0.713954 8.88195 1.84765 13.1976 5.9939 18.9056C8.75807 22.8034 12.6496 24.9167 16.1946 24.9167C18.3206 24.9167 18.583 24.4479 18.583 23.639V20.6927C18.583 19.7539 18.7842 19.5667 19.4581 19.5667C19.9549 19.5667 20.8045 19.8112 22.7891 21.6901C25.0565 23.918 25.4297 24.9167 26.7061 24.9167H30.0498C31.0052 24.9167 31.4841 24.4479 31.209 23.5206C30.9058 22.5983 29.8231 21.2596 28.3875 19.6711C27.6079 18.7667 26.4386 17.7923 26.0832 17.3044C25.5876 16.6789 25.729 16.4 26.0832 15.8433C26.0832 15.8433 30.1594 10.2054 30.5835 8.2909H30.5848Z"></path>
  </symbol>
  <symbol xmlns="http://www.w3.org/2000/svg" viewBox="0 0 32 32" id="telegram-social">
    <path d="M28.9852 3.57573L2.39018 13.8312C0.575176 14.5602 0.585677 15.5727 2.05718 16.0242L8.88518 18.1542L24.6832 8.18673C25.4302 7.73223 26.1127 7.97673 25.5517 8.47473L12.7522 20.0262H12.7492L12.7522 20.0277L12.2812 27.0657C12.9712 27.0657 13.2757 26.7492 13.6627 26.3757L16.9792 23.1507L23.8777 28.2462C25.1497 28.9467 26.0632 28.5867 26.3797 27.0687L30.9082 5.72673C31.3717 3.86823 30.1987 3.02672 28.9852 3.57573V3.57573Z"></path>
  </symbol>
  <symbol xmlns="http://www.w3.org/2000/svg" viewBox="0 0 12 12" id="arrow-left-pagination">
    <path d="M8.86548 11.1671L4.08354 5.99947L8.86548 0.831869C8.95109 0.739541 8.99902 0.615598 8.99902 0.486534C8.99902 0.357472 8.95109 0.233528 8.86548 0.1412C8.8239 0.0964956 8.77427 0.06098 8.7195 0.0367343C8.66472 0.0124885 8.60591 -1.72263e-08 8.54648 -1.98238e-08C8.48707 -2.24208e-08 8.42826 0.0124885 8.37348 0.0367343C8.31871 0.06098 8.26908 0.0964956 8.2275 0.1412L3.13933 5.63863C3.04999 5.73517 3 5.86465 3 5.99947C3 6.13429 3.04999 6.26377 3.13933 6.36031L8.22652 11.8577C8.26813 11.9028 8.31788 11.9385 8.37283 11.963C8.42779 11.9874 8.48684 12 8.54648 12C8.60614 12 8.66519 11.9874 8.72014 11.963C8.7751 11.9385 8.82485 11.9028 8.86646 11.8577C8.95207 11.7654 9 11.6415 9 11.5124C9 11.3833 8.95109 11.2594 8.86548 11.1671Z"></path>
  </symbol>
  <symbol xmlns="http://www.w3.org/2000/svg" viewBox="0 0 10 10" id="arrow-down-select">
    <path d="M9.30589 2.6121L4.99956 6.59705L0.693224 2.6121C0.616284 2.54076 0.512998 2.50082 0.405445 2.50082C0.297893 2.50082 0.194607 2.54076 0.117667 2.6121C0.080413 2.64675 0.0508167 2.68811 0.0306119 2.73375C0.0104071 2.7794 0 2.82841 0 2.87793C0 2.92744 0.0104071 2.97645 0.0306119 3.0221C0.0508167 3.06774 0.080413 3.1091 0.117667 3.14375L4.69886 7.38389C4.77931 7.45834 4.88721 7.5 4.99956 7.5C5.11191 7.5 5.21981 7.45834 5.30026 7.38389L9.88145 3.14457C9.91897 3.10989 9.94879 3.06843 9.96915 3.02264C9.98951 2.97684 10 2.92763 10 2.87793C10 2.82822 9.98951 2.77901 9.96915 2.73322C9.94879 2.68742 9.91897 2.64596 9.88145 2.61128C9.80451 2.53994 9.70122 2.5 9.59367 2.5C9.48612 2.5 9.38283 2.54076 9.30589 2.6121Z"></path>
  </symbol>
</svg>