<svg width="0" height="0" class="hidden">
  <symbol xmlns="http://www.w3.org/2000/svg" viewBox="0 0 22 22" id="arrow-login">
    <path d="M9 21C8.73478 21 8.48043 20.8946 8.29289 20.7071C8.10536 20.5196 8 20.2652 8 20C8 19.7348 8.10536 19.4804 8.29289 19.2929C8.48043 19.1054 8.73478 19 9 19H17.3333C18.0406 19 18.7189 18.719 19.219 18.2189C19.719 17.7189 20 17.0406 20 16.3333V5.66667C20 4.95942 19.719 4.28115 19.219 3.78105C18.7189 3.28095 18.0406 3 17.3333 3H9C8.73478 3 8.48043 2.89464 8.29289 2.70711C8.10536 2.51957 8 2.26522 8 2C8 1.73478 8.10536 1.48043 8.29289 1.29289C8.48043 1.10536 8.73478 1 9 1H17.3333C18.571 1 19.758 1.49167 20.6332 2.36683C21.5083 3.242 22 4.42899 22 5.66667V16.3333C22 17.571 21.5083 18.758 20.6332 19.6332C19.758 20.5083 18.571 21 17.3333 21H9ZM8.988 5.932C9.08447 5.84286 9.19755 5.77359 9.32079 5.72816C9.44404 5.68273 9.57502 5.66202 9.70627 5.66722C9.83751 5.67242 9.96645 5.70343 10.0857 5.75847C10.205 5.81351 10.3122 5.8915 10.4013 5.988L14.4013 10.3213C14.5721 10.5061 14.6669 10.7484 14.6669 11C14.6669 11.2516 14.5721 11.4939 14.4013 11.6787L10.4013 16.012C10.3121 16.1084 10.2048 16.1863 10.0855 16.2412C9.96618 16.2961 9.83723 16.327 9.70599 16.332C9.57475 16.3371 9.44379 16.3163 9.3206 16.2708C9.19741 16.2252 9.08439 16.1559 8.988 16.0667C8.89161 15.9775 8.81374 15.8701 8.75882 15.7508C8.70391 15.6315 8.67303 15.5026 8.66796 15.3713C8.6577 15.1063 8.75316 14.848 8.93333 14.6533L11.384 11.9987H1C0.734784 11.9987 0.48043 11.8933 0.292893 11.7058C0.105357 11.5182 0 11.2639 0 10.9987C0 10.7334 0.105357 10.4791 0.292893 10.2916C0.48043 10.104 0.734784 9.99867 1 9.99867H11.3827L8.932 7.34533C8.84286 7.24887 8.77359 7.13578 8.72816 7.01254C8.68273 6.8893 8.66202 6.75831 8.66722 6.62707C8.67242 6.49582 8.70343 6.36688 8.75847 6.24762C8.81351 6.12836 8.8915 6.02111 8.988 5.932V5.932Z"></path>
  </symbol>
  <symbol xmlns="http://www.w3.org/2000/svg" viewBox="0 0 22 22" id="search">
    <path d="M20 19.0586L14.972 14.0306C16.1803 12.58 16.7828 10.7195 16.6542 8.83605C16.5256 6.95259 15.6759 5.19121 14.2817 3.91831C12.8876 2.64541 11.0563 1.95901 9.16898 2.00189C7.28163 2.04478 5.48346 2.81365 4.14855 4.14855C2.81365 5.48346 2.04478 7.28163 2.00189 9.16898C1.95901 11.0563 2.64541 12.8876 3.91831 14.2817C5.19121 15.6759 6.95259 16.5256 8.83605 16.6542C10.7195 16.7828 12.58 16.1803 14.0306 14.972L19.0586 20L20 19.0586ZM3.35538 9.34744C3.35538 8.16232 3.70681 7.00382 4.36522 6.01843C5.02364 5.03304 5.95947 4.26502 7.05438 3.8115C8.14928 3.35797 9.35409 3.23931 10.5164 3.47051C11.6788 3.70172 12.7465 4.27241 13.5845 5.11041C14.4225 5.94842 14.9932 7.0161 15.2244 8.17845C15.4556 9.34079 15.3369 10.5456 14.8834 11.6405C14.4299 12.7354 13.6618 13.6712 12.6765 14.3297C11.6911 14.9881 10.5326 15.3395 9.34744 15.3395C7.75879 15.3377 6.23571 14.7059 5.11236 13.5825C3.98901 12.4592 3.35714 10.9361 3.35538 9.34744V9.34744Z"></path>
  </symbol>
  <symbol xmlns="http://www.w3.org/2000/svg" viewBox="0 0 44 44" id="toggle-aside-nav">
    <path fill-rule="evenodd" clip-rule="evenodd" d="M10 36C10 34.343 11.34 33 12.99 33H41.01C41.4033 33.0007 41.7926 33.0788 42.1558 33.2299C42.5189 33.381 42.8487 33.6022 43.1263 33.8807C43.404 34.1593 43.624 34.4899 43.7739 34.8535C43.9238 35.2171 44.0007 35.6067 44 36C44 37.657 42.66 39 41.01 39H12.99C12.5967 38.9993 12.2074 38.9212 11.8442 38.7701C11.4811 38.619 11.1513 38.3978 10.8737 38.1193C10.596 37.8407 10.376 37.5101 10.2261 37.1465C10.0762 36.7829 9.99934 36.3933 10 36V36Z"></path>
    <path d="M6.003 36C6.003 36.394 5.9254 36.7841 5.77464 37.1481C5.62388 37.512 5.4029 37.8427 5.12432 38.1213C4.84575 38.3999 4.51503 38.6209 4.15105 38.7716C3.78707 38.9224 3.39697 39 3.003 39C2.60903 39 2.21893 38.9224 1.85495 38.7716C1.49097 38.6209 1.16026 38.3999 0.88168 38.1213C0.603104 37.8427 0.382126 37.512 0.231362 37.1481C0.0805975 36.7841 0.00300025 36.394 0.00300026 36C0.00300027 35.2044 0.319071 34.4413 0.88168 33.8787C1.44429 33.3161 2.20735 33 3.003 33C3.79865 33 4.56171 33.3161 5.12432 33.8787C5.68693 34.4413 6.003 35.2044 6.003 36V36Z"></path>
    <path fill-rule="evenodd" clip-rule="evenodd" d="M10 22C10 20.343 11.34 19 12.99 19H41.01C41.4033 19.0007 41.7926 19.0788 42.1558 19.2299C42.5189 19.381 42.8487 19.6022 43.1263 19.8807C43.404 20.1593 43.624 20.4899 43.7739 20.8535C43.9238 21.2171 44.0007 21.6067 44 22C44 23.657 42.66 25 41.01 25H12.99C12.5967 24.9993 12.2074 24.9212 11.8442 24.7701C11.4811 24.619 11.1513 24.3978 10.8737 24.1193C10.596 23.8407 10.376 23.5101 10.2261 23.1465C10.0762 22.7829 9.99934 22.3933 10 22V22Z"></path>
    <path d="M6.003 22C6.003 22.394 5.9254 22.7841 5.77464 23.1481C5.62388 23.512 5.4029 23.8427 5.12432 24.1213C4.84575 24.3999 4.51503 24.6209 4.15105 24.7716C3.78707 24.9224 3.39697 25 3.003 25C2.60903 25 2.21893 24.9224 1.85495 24.7716C1.49097 24.6209 1.16026 24.3999 0.88168 24.1213C0.603104 23.8427 0.382126 23.512 0.231362 23.1481C0.0805975 22.7841 0.00300025 22.394 0.00300026 22C0.00300027 21.2044 0.319071 20.4413 0.88168 19.8787C1.44429 19.3161 2.20735 19 3.003 19C3.79865 19 4.56171 19.3161 5.12432 19.8787C5.68693 20.4413 6.003 21.2044 6.003 22V22Z"></path>
    <path fill-rule="evenodd" clip-rule="evenodd" d="M10 8C10 6.343 11.34 5 12.99 5H41.01C41.4033 5.00066 41.7926 5.07877 42.1558 5.22989C42.5189 5.38101 42.8487 5.60217 43.1263 5.88075C43.404 6.15933 43.624 6.48986 43.7739 6.85348C43.9238 7.2171 44.0007 7.60669 44 8C44 9.657 42.66 11 41.01 11H12.99C12.5967 10.9993 12.2074 10.9212 11.8442 10.7701C11.4811 10.619 11.1513 10.3978 10.8737 10.1193C10.596 9.84067 10.376 9.51014 10.2261 9.14652C10.0762 8.7829 9.99934 8.39331 10 8V8Z"></path>
    <path d="M6.003 8C6.003 8.39397 5.9254 8.78407 5.77464 9.14805C5.62388 9.51203 5.4029 9.84274 5.12432 10.1213C4.84575 10.3999 4.51503 10.6209 4.15105 10.7716C3.78707 10.9224 3.39697 11 3.003 11C2.60903 11 2.21893 10.9224 1.85495 10.7716C1.49097 10.6209 1.16026 10.3999 0.88168 10.1213C0.603104 9.84274 0.382126 9.51203 0.231362 9.14805C0.0805975 8.78407 0.00300025 8.39397 0.00300026 8C0.00300027 7.20435 0.319071 6.44129 0.88168 5.87868C1.44429 5.31607 2.20735 5 3.003 5C3.79865 5 4.56171 5.31607 5.12432 5.87868C5.68693 6.44129 6.003 7.20435 6.003 8V8Z"></path>
  </symbol>
  <symbol xmlns="http://www.w3.org/2000/svg" viewBox="0 0 32 32" id="signal-social">
    <path d="M12.3989 1.43789L12.7356 2.80162C11.4086 3.12957 10.1386 3.65538 8.96825 4.36139L8.24803 3.15534C9.5363 2.37518 10.936 1.79603 12.3989 1.43789V1.43789ZM19.6011 1.43789L19.2644 2.80162C20.5914 3.12957 21.8614 3.65538 23.0317 4.36139L23.7605 3.15534C22.4688 2.37586 21.0664 1.79679 19.6011 1.43789V1.43789ZM3.15534 8.24377C2.3759 9.53393 1.79682 10.9349 1.43788 12.3989L2.80162 12.7356C3.12956 11.4086 3.65538 10.1386 4.36139 8.96825L3.15534 8.24377ZM2.40528 16C2.40518 15.3181 2.45646 14.6371 2.5587 13.9629L1.1694 13.7498C0.943534 15.24 0.943534 16.7557 1.1694 18.2459L2.5587 18.0371C2.45662 17.3629 2.40534 16.6819 2.40528 16V16ZM23.752 28.8404L23.0317 27.6386C21.8632 28.3453 20.5945 28.8711 19.2687 29.1984L19.6054 30.5621C21.0665 30.2005 22.4645 29.6201 23.752 28.8404ZM29.5947 16C29.5947 16.6819 29.5434 17.3629 29.4413 18.0371L30.8306 18.2459C31.0565 16.7557 31.0565 15.24 30.8306 13.7498L29.4413 13.9629C29.5435 14.6371 29.5948 15.3181 29.5947 16V16ZM30.5621 19.5968L29.1984 19.2602C28.8712 20.5887 28.3454 21.8602 27.6386 23.0317L28.8447 23.7562C29.6249 22.4649 30.204 21.0624 30.5621 19.5968V19.5968ZM18.0371 29.4413C16.6867 29.6459 15.3133 29.6459 13.9629 29.4413L13.7541 30.8306C15.2428 31.0565 16.7572 31.0565 18.2459 30.8306L18.0371 29.4413ZM26.944 24.0631C26.1339 25.1615 25.1627 26.1313 24.0631 26.9397L24.8984 28.0733C26.1096 27.1817 27.1811 26.1145 28.0776 24.9069L26.944 24.0631ZM24.0631 5.05604C25.1628 5.86598 26.134 6.8372 26.944 7.93693L28.0776 7.09312C27.1842 5.88443 26.1156 4.81578 24.9069 3.92244L24.0631 5.05604ZM5.05604 7.93693C5.86597 6.8372 6.8372 5.86598 7.93692 5.05604L7.09312 3.92244C5.88443 4.81578 4.81577 5.88443 3.92244 7.09312L5.05604 7.93693ZM28.8447 8.24377L27.6386 8.96825C28.3453 10.1368 28.8711 11.4055 29.1984 12.7313L30.5621 12.3946C30.2031 10.932 29.6241 9.53243 28.8447 8.24377V8.24377ZM13.9629 2.55871C15.3133 2.35412 16.6867 2.35412 18.0371 2.55871L18.2459 1.1694C16.7572 0.943512 15.2428 0.943512 13.7541 1.1694L13.9629 2.55871ZM5.77626 28.4483L2.87407 29.1217L3.55167 26.2195L2.18368 25.8999L1.50607 28.802C1.46367 28.982 1.45717 29.1685 1.48692 29.351C1.51668 29.5334 1.58211 29.7082 1.67949 29.8653C1.77686 30.0225 1.90425 30.1589 2.05439 30.2667C2.20452 30.3746 2.37444 30.4518 2.55444 30.4939C2.76495 30.5408 2.98319 30.5408 3.19369 30.4939L6.09589 29.8248L5.77626 28.4483ZM2.47347 24.6469L3.84573 24.9623L4.31451 22.9508C3.62993 21.8024 3.12005 20.5586 2.80162 19.2602L1.43788 19.5968C1.74463 20.8397 2.20863 22.0384 2.81866 23.1639L2.47347 24.6469ZM9.03644 27.6898L7.02493 28.1585L7.34455 29.5308L8.82335 29.1856C9.94797 29.7975 11.1469 30.2616 12.3904 30.5664L12.727 29.2026C11.4326 28.88 10.1932 28.3673 9.04922 27.6812L9.03644 27.6898ZM16 3.81163C9.26657 3.8159 3.81589 9.27509 3.81589 16.0043C3.8196 18.2962 4.46791 20.541 5.68677 22.482L4.51481 27.4852L9.51374 26.3132C15.2116 29.8973 22.7377 28.1884 26.3218 22.4948C29.9058 16.8012 28.2012 9.27509 22.5076 5.68677C20.5584 4.46103 18.3025 3.81101 16 3.81163"></path>
  </symbol>
  <symbol xmlns="http://www.w3.org/2000/svg" viewBox="0 0 32 32" id="vk-social">
    <path fill-rule="evenodd" clip-rule="evenodd" d="M30.5848 8.2909C30.7963 7.5954 30.5848 7.08333 29.5721 7.08333H26.2284C25.3775 7.08333 24.9851 7.52534 24.7724 8.01321C24.7724 8.01321 23.0719 12.0843 20.6631 14.7287C19.8835 15.4956 19.5294 15.7389 19.104 15.7389C18.8912 15.7389 18.5715 15.4956 18.5715 14.7988V8.2909C18.5715 7.45528 18.3371 7.08333 17.6289 7.08333H12.3706C11.8394 7.08333 11.5197 7.47056 11.5197 7.8387C11.5197 8.62973 12.7247 8.81316 12.8483 11.0398V15.8777C12.8483 16.9388 12.6534 17.1311 12.2279 17.1311C11.0942 17.1311 8.33644 13.0409 6.69959 8.36096C6.38241 7.45018 6.06141 7.08333 5.20668 7.08333H1.86038C0.905025 7.08333 0.713954 7.52534 0.713954 8.01321C0.713954 8.88195 1.84765 13.1976 5.9939 18.9056C8.75807 22.8034 12.6496 24.9167 16.1946 24.9167C18.3206 24.9167 18.583 24.4479 18.583 23.639V20.6927C18.583 19.7539 18.7842 19.5667 19.4581 19.5667C19.9549 19.5667 20.8045 19.8112 22.7891 21.6901C25.0565 23.918 25.4297 24.9167 26.7061 24.9167H30.0498C31.0052 24.9167 31.4841 24.4479 31.209 23.5206C30.9058 22.5983 29.8231 21.2596 28.3875 19.6711C27.6079 18.7667 26.4386 17.7923 26.0832 17.3044C25.5876 16.6789 25.729 16.4 26.0832 15.8433C26.0832 15.8433 30.1594 10.2054 30.5835 8.2909H30.5848Z"></path>
  </symbol>
  <symbol xmlns="http://www.w3.org/2000/svg" viewBox="0 0 32 32" id="telegram-social">
    <path d="M28.9852 3.57573L2.39018 13.8312C0.575176 14.5602 0.585677 15.5727 2.05718 16.0242L8.88518 18.1542L24.6832 8.18673C25.4302 7.73223 26.1127 7.97673 25.5517 8.47473L12.7522 20.0262H12.7492L12.7522 20.0277L12.2812 27.0657C12.9712 27.0657 13.2757 26.7492 13.6627 26.3757L16.9792 23.1507L23.8777 28.2462C25.1497 28.9467 26.0632 28.5867 26.3797 27.0687L30.9082 5.72673C31.3717 3.86823 30.1987 3.02672 28.9852 3.57573V3.57573Z"></path>
  </symbol>
  <symbol xmlns="http://www.w3.org/2000/svg" viewBox="0 0 12 12" id="arrow-left-pagination">
    <path d="M8.86548 11.1671L4.08354 5.99947L8.86548 0.831869C8.95109 0.739541 8.99902 0.615598 8.99902 0.486534C8.99902 0.357472 8.95109 0.233528 8.86548 0.1412C8.8239 0.0964956 8.77427 0.06098 8.7195 0.0367343C8.66472 0.0124885 8.60591 -1.72263e-08 8.54648 -1.98238e-08C8.48707 -2.24208e-08 8.42826 0.0124885 8.37348 0.0367343C8.31871 0.06098 8.26908 0.0964956 8.2275 0.1412L3.13933 5.63863C3.04999 5.73517 3 5.86465 3 5.99947C3 6.13429 3.04999 6.26377 3.13933 6.36031L8.22652 11.8577C8.26813 11.9028 8.31788 11.9385 8.37283 11.963C8.42779 11.9874 8.48684 12 8.54648 12C8.60614 12 8.66519 11.9874 8.72014 11.963C8.7751 11.9385 8.82485 11.9028 8.86646 11.8577C8.95207 11.7654 9 11.6415 9 11.5124C9 11.3833 8.95109 11.2594 8.86548 11.1671Z"></path>
  </symbol>
  <symbol xmlns="http://www.w3.org/2000/svg" viewBox="0 0 10 10" id="arrow-down-select">
    <path d="M9.30589 2.6121L4.99956 6.59705L0.693224 2.6121C0.616284 2.54076 0.512998 2.50082 0.405445 2.50082C0.297893 2.50082 0.194607 2.54076 0.117667 2.6121C0.080413 2.64675 0.0508167 2.68811 0.0306119 2.73375C0.0104071 2.7794 0 2.82841 0 2.87793C0 2.92744 0.0104071 2.97645 0.0306119 3.0221C0.0508167 3.06774 0.080413 3.1091 0.117667 3.14375L4.69886 7.38389C4.77931 7.45834 4.88721 7.5 4.99956 7.5C5.11191 7.5 5.21981 7.45834 5.30026 7.38389L9.88145 3.14457C9.91897 3.10989 9.94879 3.06843 9.96915 3.02264C9.98951 2.97684 10 2.92763 10 2.87793C10 2.82822 9.98951 2.77901 9.96915 2.73322C9.94879 2.68742 9.91897 2.64596 9.88145 2.61128C9.80451 2.53994 9.70122 2.5 9.59367 2.5C9.48612 2.5 9.38283 2.54076 9.30589 2.6121Z"></path>
  </symbol>
  <symbol xmlns="http://www.w3.org/2000/svg" viewBox="0 0 22 22" id="calculator">
    <path d="M5.61538 18.1429C5.61538 17.7485 5.46514 17.4118 5.16466 17.1328C4.86418 16.8538 4.5016 16.7143 4.07692 16.7143C3.65224 16.7143 3.28966 16.8538 2.98918 17.1328C2.6887 17.4118 2.53846 17.7485 2.53846 18.1429C2.53846 18.5372 2.6887 18.8739 2.98918 19.1529C3.28966 19.4319 3.65224 19.5714 4.07692 19.5714C4.5016 19.5714 4.86418 19.4319 5.16466 19.1529C5.46514 18.8739 5.61538 18.5372 5.61538 18.1429ZM10.2308 18.1429C10.2308 17.7485 10.0805 17.4118 9.78005 17.1328C9.47957 16.8538 9.11699 16.7143 8.69231 16.7143C8.26763 16.7143 7.90505 16.8538 7.60457 17.1328C7.30409 17.4118 7.15385 17.7485 7.15385 18.1429C7.15385 18.5372 7.30409 18.8739 7.60457 19.1529C7.90505 19.4319 8.26763 19.5714 8.69231 19.5714C9.11699 19.5714 9.47957 19.4319 9.78005 19.1529C10.0805 18.8739 10.2308 18.5372 10.2308 18.1429ZM5.61538 13.8571C5.61538 13.4628 5.46514 13.1261 5.16466 12.8471C4.86418 12.5681 4.5016 12.4286 4.07692 12.4286C3.65224 12.4286 3.28966 12.5681 2.98918 12.8471C2.6887 13.1261 2.53846 13.4628 2.53846 13.8571C2.53846 14.2515 2.6887 14.5882 2.98918 14.8672C3.28966 15.1462 3.65224 15.2857 4.07692 15.2857C4.5016 15.2857 4.86418 15.1462 5.16466 14.8672C5.46514 14.5882 5.61538 14.2515 5.61538 13.8571ZM14.8462 18.1429C14.8462 17.7485 14.6959 17.4118 14.3954 17.1328C14.095 16.8538 13.7324 16.7143 13.3077 16.7143C12.883 16.7143 12.5204 16.8538 12.22 17.1328C11.9195 17.4118 11.7692 17.7485 11.7692 18.1429C11.7692 18.5372 11.9195 18.8739 12.22 19.1529C12.5204 19.4319 12.883 19.5714 13.3077 19.5714C13.7324 19.5714 14.095 19.4319 14.3954 19.1529C14.6959 18.8739 14.8462 18.5372 14.8462 18.1429ZM10.2308 13.8571C10.2308 13.4628 10.0805 13.1261 9.78005 12.8471C9.47957 12.5681 9.11699 12.4286 8.69231 12.4286C8.26763 12.4286 7.90505 12.5681 7.60457 12.8471C7.30409 13.1261 7.15385 13.4628 7.15385 13.8571C7.15385 14.2515 7.30409 14.5882 7.60457 14.8672C7.90505 15.1462 8.26763 15.2857 8.69231 15.2857C9.11699 15.2857 9.47957 15.1462 9.78005 14.8672C10.0805 14.5882 10.2308 14.2515 10.2308 13.8571ZM5.61538 9.57143C5.61538 9.17708 5.46514 8.8404 5.16466 8.56138C4.86418 8.28237 4.5016 8.14286 4.07692 8.14286C3.65224 8.14286 3.28966 8.28237 2.98918 8.56138C2.6887 8.8404 2.53846 9.17708 2.53846 9.57143C2.53846 9.96577 2.6887 10.3025 2.98918 10.5815C3.28966 10.8605 3.65224 11 4.07692 11C4.5016 11 4.86418 10.8605 5.16466 10.5815C5.46514 10.3025 5.61538 9.96577 5.61538 9.57143ZM14.8462 13.8571C14.8462 13.4628 14.6959 13.1261 14.3954 12.8471C14.095 12.5681 13.7324 12.4286 13.3077 12.4286C12.883 12.4286 12.5204 12.5681 12.22 12.8471C11.9195 13.1261 11.7692 13.4628 11.7692 13.8571C11.7692 14.2515 11.9195 14.5882 12.22 14.8672C12.5204 15.1462 12.883 15.2857 13.3077 15.2857C13.7324 15.2857 14.095 15.1462 14.3954 14.8672C14.6959 14.5882 14.8462 14.2515 14.8462 13.8571ZM10.2308 9.57143C10.2308 9.17708 10.0805 8.8404 9.78005 8.56138C9.47957 8.28237 9.11699 8.14286 8.69231 8.14286C8.26763 8.14286 7.90505 8.28237 7.60457 8.56138C7.30409 8.8404 7.15385 9.17708 7.15385 9.57143C7.15385 9.96577 7.30409 10.3025 7.60457 10.5815C7.90505 10.8605 8.26763 11 8.69231 11C9.11699 11 9.47957 10.8605 9.78005 10.5815C10.0805 10.3025 10.2308 9.96577 10.2308 9.57143ZM19.4615 18.1429V13.8571C19.4615 13.4702 19.3093 13.1354 19.0048 12.8527C18.7003 12.5699 18.3397 12.4286 17.9231 12.4286C17.5064 12.4286 17.1458 12.5699 16.8413 12.8527C16.5369 13.1354 16.3846 13.4702 16.3846 13.8571V18.1429C16.3846 18.5298 16.5369 18.8646 16.8413 19.1473C17.1458 19.4301 17.5064 19.5714 17.9231 19.5714C18.3397 19.5714 18.7003 19.4301 19.0048 19.1473C19.3093 18.8646 19.4615 18.5298 19.4615 18.1429ZM14.8462 9.57143C14.8462 9.17708 14.6959 8.8404 14.3954 8.56138C14.095 8.28237 13.7324 8.14286 13.3077 8.14286C12.883 8.14286 12.5204 8.28237 12.22 8.56138C11.9195 8.8404 11.7692 9.17708 11.7692 9.57143C11.7692 9.96577 11.9195 10.3025 12.22 10.5815C12.5204 10.8605 12.883 11 13.3077 11C13.7324 11 14.095 10.8605 14.3954 10.5815C14.6959 10.3025 14.8462 9.96577 14.8462 9.57143ZM19.4615 6V3.14286C19.4615 2.9494 19.3854 2.78199 19.2332 2.64062C19.0809 2.49926 18.9006 2.42857 18.6923 2.42857H3.30769C3.09936 2.42857 2.91907 2.49926 2.76683 2.64062C2.61458 2.78199 2.53846 2.9494 2.53846 3.14286V6C2.53846 6.19345 2.61458 6.36086 2.76683 6.50223C2.91907 6.6436 3.09936 6.71429 3.30769 6.71429H18.6923C18.9006 6.71429 19.0809 6.6436 19.2332 6.50223C19.3854 6.36086 19.4615 6.19345 19.4615 6ZM19.4615 9.57143C19.4615 9.17708 19.3113 8.8404 19.0108 8.56138C18.7103 8.28237 18.3478 8.14286 17.9231 8.14286C17.4984 8.14286 17.1358 8.28237 16.8353 8.56138C16.5349 8.8404 16.3846 9.17708 16.3846 9.57143C16.3846 9.96577 16.5349 10.3025 16.8353 10.5815C17.1358 10.8605 17.4984 11 17.9231 11C18.3478 11 18.7103 10.8605 19.0108 10.5815C19.3113 10.3025 19.4615 9.96577 19.4615 9.57143ZM21 2.42857V19.5714C21 19.9583 20.8478 20.2932 20.5433 20.5759C20.2388 20.8586 19.8782 21 19.4615 21H2.53846C2.12179 21 1.76122 20.8586 1.45673 20.5759C1.15224 20.2932 1 19.9583 1 19.5714V2.42857C1 2.04167 1.15224 1.70685 1.45673 1.42411C1.76122 1.14137 2.12179 1 2.53846 1H19.4615C19.8782 1 20.2388 1.14137 20.5433 1.42411C20.8478 1.70685 21 2.04167 21 2.42857Z"></path>
  </symbol>
  <symbol xmlns="http://www.w3.org/2000/svg" viewBox="0 0 22 22" id="close">
    <path fill-rule="evenodd" clip-rule="evenodd" d="M16.9947 6.1448C17.0695 6.07006 17.1289 5.98132 17.1694 5.88364C17.21 5.78596 17.2309 5.68125 17.2309 5.57549C17.231 5.46974 17.2102 5.365 17.1698 5.26727C17.1294 5.16954 17.0701 5.08073 16.9954 5.0059C16.9207 4.93107 16.8319 4.8717 16.7342 4.83117C16.6366 4.79064 16.5318 4.76974 16.4261 4.76968C16.3203 4.76961 16.2156 4.79038 16.1179 4.83079C16.0201 4.8712 15.9313 4.93046 15.8565 5.0052L10.9999 9.8618L6.1447 5.0052C5.99358 4.85408 5.78861 4.76918 5.5749 4.76918C5.36118 4.76918 5.15622 4.85408 5.0051 5.0052C4.85398 5.15632 4.76908 5.36128 4.76908 5.575C4.76908 5.78872 4.85398 5.99368 5.0051 6.1448L9.8617 11L5.0051 15.8552C4.93027 15.93 4.87091 16.0189 4.83042 16.1166C4.78992 16.2144 4.76908 16.3192 4.76908 16.425C4.76908 16.5308 4.78992 16.6356 4.83042 16.7334C4.87091 16.8311 4.93027 16.92 5.0051 16.9948C5.15622 17.1459 5.36118 17.2308 5.5749 17.2308C5.68072 17.2308 5.7855 17.21 5.88327 17.1695C5.98104 17.129 6.06987 17.0696 6.1447 16.9948L10.9999 12.1382L15.8565 16.9948C16.0076 17.1457 16.2125 17.2305 16.4261 17.2303C16.6397 17.2302 16.8445 17.1452 16.9954 16.9941C17.1463 16.843 17.2311 16.6381 17.2309 16.4245C17.2308 16.2109 17.1458 16.0061 16.9947 15.8552L12.1381 11L16.9947 6.1448Z"></path>
  </symbol>
  <symbol xmlns="http://www.w3.org/2000/svg" viewBox="0 0 22 22" id="copy">
    <path d="M8.71439 4.14295C8.41129 4.14295 8.1206 4.26336 7.90628 4.47769C7.69195 4.69201 7.57154 4.9827 7.57154 5.2858V13.2857C7.57154 13.5888 7.69195 13.8795 7.90628 14.0938C8.1206 14.3082 8.41129 14.4286 8.71439 14.4286H16.7143C17.0174 14.4286 17.3081 14.3082 17.5224 14.0938C17.7368 13.8795 17.8572 13.5888 17.8572 13.2857V5.2858C17.8572 4.9827 17.7368 4.69201 17.5224 4.47769C17.3081 4.26336 17.0174 4.14295 16.7143 4.14295H8.71439ZM8.71439 3.00011H16.7143C17.3205 3.00011 17.9019 3.24092 18.3306 3.66957C18.7592 4.09822 19 4.6796 19 5.2858V13.2857C19 13.8919 18.7592 14.4733 18.3306 14.902C17.9019 15.3306 17.3205 15.5714 16.7143 15.5714H8.71439C8.10819 15.5714 7.52681 15.3306 7.09816 14.902C6.66951 14.4733 6.4287 13.8919 6.4287 13.2857V5.2858C6.4287 4.6796 6.66951 4.09822 7.09816 3.66957C7.52681 3.24092 8.10819 3.00011 8.71439 3.00011V3.00011Z"></path>
    <path d="M15.5713 16.7142C15.5713 17.3204 15.3305 17.9018 14.9018 18.3304C14.4732 18.7591 13.8918 18.9999 13.2856 18.9999H5.28568C4.67948 18.9999 4.0981 18.7591 3.66945 18.3304C3.2408 17.9018 2.99998 17.3204 2.99998 16.7142V8.71427C2.99998 8.10806 3.2408 7.52669 3.66945 7.09804C4.0981 6.66939 4.67948 6.42857 5.28568 6.42857V7.57142C4.98258 7.57142 4.69189 7.69183 4.47756 7.90615C4.26324 8.12048 4.14283 8.41117 4.14283 8.71427V16.7142C4.14283 17.0173 4.26324 17.308 4.47756 17.5223C4.69189 17.7366 4.98258 17.857 5.28568 17.857H13.2856C13.5887 17.857 13.8794 17.7366 14.0937 17.5223C14.308 17.308 14.4285 17.0173 14.4285 16.7142H15.5713Z"></path>
  </symbol>
  <symbol fill="none" xmlns="http://www.w3.org/2000/svg" viewBox="0 0 22 22" id="info">
    <path d="M22 11C22 17.0751 17.0751 22 11 22C4.92487 22 0 17.0751 0 11C0 4.92487 4.92487 0 11 0C17.0751 0 22 4.92487 22 11Z" fill="#404040"></path>
    <path d="M10.0283 7.38184C10.0283 6.7028 10.4066 6.36328 11.1631 6.36328C11.9196 6.36328 12.2979 6.7028 12.2979 7.38184C12.2979 7.7054 12.2021 7.95833 12.0107 8.14062C11.8239 8.31836 11.5413 8.40723 11.1631 8.40723C10.4066 8.40723 10.0283 8.06543 10.0283 7.38184ZM12.2021 17H10.1172V9.35742H12.2021V17Z" fill="white"></path>
  </symbol>
  <symbol fill="none" xmlns="http://www.w3.org/2000/svg" viewBox="0 0 22 22" id="remove">
    <path d="M12.76 3.52C12.76 2.93652 12.5282 2.37695 12.1156 1.96437C11.7031 1.55179 11.1435 1.32 10.56 1.32C9.97652 1.32 9.41695 1.55179 9.00437 1.96437C8.59179 2.37695 8.36 2.93652 8.36 3.52H12.76ZM7.04 3.52C7.04 2.58644 7.41086 1.69111 8.07098 1.03098C8.73111 0.370856 9.62644 0 10.56 0C11.4936 0 12.3889 0.370856 13.049 1.03098C13.7091 1.69111 14.08 2.58644 14.08 3.52H19.58C19.755 3.52 19.9229 3.58954 20.0467 3.71331C20.1705 3.83708 20.24 4.00496 20.24 4.18C20.24 4.35504 20.1705 4.52292 20.0467 4.64669C19.9229 4.77046 19.755 4.84 19.58 4.84H18.4272L17.9802 10.2036C16.55 9.59528 14.9511 9.51114 13.465 9.96602C11.979 10.4209 10.7011 11.3856 9.85647 12.6902C9.01187 13.9948 8.65475 15.5556 8.848 17.0977C9.04125 18.6397 9.77248 20.0642 10.9129 21.12H7.49056C6.55247 21.1199 5.64867 20.7673 4.95836 20.1321C4.26806 19.4969 3.84168 18.6255 3.76376 17.6906L2.6928 4.84H1.54C1.36496 4.84 1.19708 4.77046 1.07331 4.64669C0.949536 4.52292 0.880001 4.35504 0.880001 4.18C0.880001 4.00496 0.949536 3.83708 1.07331 3.71331C1.19708 3.58954 1.36496 3.52 1.54 3.52H7.04ZM21.12 16.28C21.12 17.797 20.5174 19.2519 19.4446 20.3247C18.3719 21.3974 16.917 22 15.4 22C13.883 22 12.4281 21.3974 11.3553 20.3247C10.2826 19.2519 9.68 17.797 9.68 16.28C9.68 14.763 10.2826 13.3081 11.3553 12.2353C12.4281 11.1626 13.883 10.56 15.4 10.56C16.917 10.56 18.3719 11.1626 19.4446 12.2353C20.5174 13.3081 21.12 14.763 21.12 16.28V16.28ZM15.4 15.6578L13.0715 13.3285C12.9889 13.2459 12.8768 13.1994 12.76 13.1994C12.6432 13.1994 12.5311 13.2459 12.4485 13.3285C12.3659 13.4111 12.3194 13.5232 12.3194 13.64C12.3194 13.7568 12.3659 13.8689 12.4485 13.9515L14.7778 16.28L12.4485 18.6085C12.3659 18.6911 12.3194 18.8032 12.3194 18.92C12.3194 19.0368 12.3659 19.1489 12.4485 19.2315C12.5311 19.3141 12.6432 19.3606 12.76 19.3606C12.8768 19.3606 12.9889 19.3141 13.0715 19.2315L15.4 16.9022L17.7285 19.2315C17.8111 19.3141 17.9232 19.3606 18.04 19.3606C18.1568 19.3606 18.2689 19.3141 18.3515 19.2315C18.4341 19.1489 18.4806 19.0368 18.4806 18.92C18.4806 18.8032 18.4341 18.6911 18.3515 18.6085L16.0222 16.28L18.3515 13.9515C18.4341 13.8689 18.4806 13.7568 18.4806 13.64C18.4806 13.5232 18.4341 13.4111 18.3515 13.3285C18.2689 13.2459 18.1568 13.1994 18.04 13.1994C17.9232 13.1994 17.8111 13.2459 17.7285 13.3285L15.4 15.6578Z" fill="#404040"></path>
  </symbol>
  <symbol fill="none" xmlns="http://www.w3.org/2000/svg" viewBox="0 0 22 22" id="alert-warning">
    <path d="M18.837 3.20948C14.5472 -1.06983 7.50732 -1.06983 3.21742 3.20948C-1.07247 7.48878 -1.07247 14.5112 3.21742 18.7905C7.50732 23.0698 14.4372 23.0698 18.727 18.7905C23.0169 14.5112 23.1269 7.48878 18.837 3.20948V3.20948ZM14.1072 15.6085L11.0272 12.5362L7.94731 15.6085L6.40735 14.0723L9.48727 11L6.40735 7.92768L7.94731 6.39152L11.0272 9.46384L14.1072 6.39152L15.6471 7.92768L12.5672 11L15.6471 14.0723L14.1072 15.6085V15.6085Z" fill="#404040"></path>
  </symbol>
</svg>